<?xml version="1.0" encoding="utf-8"?>
<svg viewBox="0 0 597.21 305.712" xmlns="http://www.w3.org/2000/svg">
  <defs>
    <style>
            .cls-1{fill:#fff;fill-rule:evenodd}
        </style>
  </defs>
  <g>
    <g id="du-logo" transform="matrix(1, 0, 0, 1, -5.044384, -11.036952)">
      <path id="Trace_11" d="M75.089 10.66H8.06L25.7 37.721h52.915c25.48 1.567 62.324 20.782 63.5 70.586-2.4 68.586-53.306 71.769-68.2 71.769H13.933v25.882H83.32s87.024-2.354 87.024-97.647c-.007-68.631-45.464-96.476-95.255-97.651" class="cls-1" data-name="Tracé 11"/>
      <path id="Trace_12" d="M1100.78 205.954h36.456L1003.178 10.66H967.9v195.294h29.4v-56.472h52.915l-17.637-27.057H997.3V48.306z" class="cls-1" data-name="Tracé 12" transform="translate(-628.581)"/>
      <path id="Trace_13" d="M1477.077 180.072H1441.8c-13.3 0-34.1-10.2-34.1-40V10.66h-29.4v138.822l34.1 49.413a42.162 42.162 0 0 0 23.517 7.059h58.8z" class="cls-1" data-name="Tracé 13" transform="translate(-897.101)"/>
      <path id="Trace_14" d="M997.145 613.87v38.613s-12.481-.024-16.371 0c-3.6.021-8.186-2.829-8.186-10.53V613.87h-4.678v28.083c0 7.7 5.065 15.7 11.695 15.21h22.217V613.87z" class="cls-1" data-name="Tracé 14" transform="translate(-628.217 -384.986)"/>
      <path id="Trace_15" d="M1111.828 613.87v36.273l-23.392-36.273h-5.846v43.294h4.677v-37.441l24.561 37.441h4.677V613.87z" class="cls-1" data-name="Tracé 15" transform="translate(-703.274 -384.986)"/>
      <path id="Rectangle_37" fill="#fff" d="M0 0H4.677V43.29H0z" data-name="Rectangle 37" transform="translate(421.342 228.884)"/>
      <path id="Trace_16" d="M1268.156 613.87l-25.729 37.441V613.87h-4.677v43.294h7.018l30.406-43.294z" class="cls-1" data-name="Tracé 16" transform="translate(-804.835 -384.986)"/>
      <path id="Trace_17" d="M1383.738 618.551v-4.681h-24.558v43.294h24.557v-4.681h-19.88v-14.042h11.695v-4.68h-11.695v-15.21z" class="cls-1" data-name="Tracé 17" transform="translate(-884.274 -384.986)"/>
      <path id="Trace_18" d="M1477.287 627.912c0-12.773-12.863-14.042-12.863-14.042h-17.544v43.294h4.677v-38.613s6.22.024 11.694 0c10.377-.184 12.367 18.334 0 18.722-3.6.111-8.186 0-8.186 0l15.2 19.891h5.849l-11.695-15.21s12.863-1.269 12.863-14.042" class="cls-1" data-name="Tracé 18" transform="translate(-941.904 -384.986)"/>
      <path id="Trace_19" d="M1563.273 633.76c-13.754-2.385-11.5-15.21-3.509-15.21h12.866v-4.681h-14.03c-11.011-.1-15.886 18.917-.392 23.077 14.035 4.466 10.023 15.533 3.9 15.536h-14.038v4.681h16.372c10.332 0 12.572-20.574-1.168-23.4" class="cls-1" data-name="Tracé 19" transform="translate(-1008.011 -384.985)"/>
      <path id="Trace_20" d="M1660.331 618.551v-4.681h-24.561v43.294h24.561v-4.681h-19.884v-14.042h11.695v-4.68h-11.695v-15.21z" class="cls-1" data-name="Tracé 20" transform="translate(-1065.304 -384.986)"/>
      <path id="Ligne_5" fill="#fff" stroke="#fff" stroke-miterlimit="10" stroke-width="6px" d="M318.615 0L0 0" data-name="Ligne 5" transform="translate(12.824 228.884)"/>
      <path id="Trace_21" d="M628.9 10.66h-20.111v26.052h20.331v143.36h-61.156c-16.933 0-32.937-15.765-32.937-40V10.66H505.64v131.749c0 27.3 19.762 63.531 62.324 63.531h88.192V10.66z" class="cls-1" data-name="Tracé 21" transform="translate(-325.822)"/>
    </g>
    <path d="M 21.590999916076658 300.31303784179687 Q 16.76099991607666 300.31303784179687 12.87399991607666 298.17403784179686 Q 8.986999916076659 296.03503784179685 6.7789999160766605 292.2860378417969 Q 4.57099991607666 288.53703784179686 4.57099991607666 283.84503784179685 Q 4.57099991607666 279.1530378417969 6.7789999160766605 275.4040378417969 Q 8.986999916076659 271.65503784179685 12.89699991607666 269.5160378417969 Q 16.80699991607666 267.3770378417969 21.63699991607666 267.3770378417969 Q 25.40899991607666 267.3770378417969 28.53699991607666 268.6420378417969 Q 31.66499991607666 269.90703784179686 33.87299991607666 272.3910378417969 L 30.88299991607666 275.28903784179687 Q 27.24899991607666 271.4710378417969 21.82099991607666 271.4710378417969 Q 18.232999916076658 271.4710378417969 15.33499991607666 273.0810378417969 Q 12.43699991607666 274.69103784179686 10.80399991607666 277.52003784179686 Q 9.17099991607666 280.34903784179687 9.17099991607666 283.84503784179685 Q 9.17099991607666 287.3410378417969 10.80399991607666 290.1700378417969 Q 12.43699991607666 292.99903784179685 15.33499991607666 294.60903784179686 Q 18.232999916076658 296.2190378417969 21.82099991607666 296.2190378417969 Q 27.20299991607666 296.2190378417969 30.88299991607666 292.3550378417969 L 33.87299991607666 295.25303784179687 Q 31.66499991607666 297.73703784179685 28.51399991607666 299.02503784179686 Q 25.36299991607666 300.31303784179687 21.590999916076658 300.31303784179687 Z M 90.277865234375 300.31303784179687 Q 85.401865234375 300.31303784179687 81.491865234375 298.17403784179686 Q 77.581865234375 296.03503784179685 75.350865234375 292.26303784179686 Q 73.119865234375 288.49103784179687 73.119865234375 283.84503784179685 Q 73.119865234375 279.1990378417969 75.350865234375 275.42703784179685 Q 77.581865234375 271.65503784179685 81.491865234375 269.5160378417969 Q 85.401865234375 267.3770378417969 90.277865234375 267.3770378417969 Q 95.107865234375 267.3770378417969 99.017865234375 269.5160378417969 Q 102.92786523437499 271.65503784179685 105.13586523437499 275.4040378417969 Q 107.343865234375 279.1530378417969 107.343865234375 283.84503784179685 Q 107.343865234375 288.53703784179686 105.13586523437499 292.2860378417969 Q 102.92786523437499 296.03503784179685 99.017865234375 298.17403784179686 Q 95.107865234375 300.31303784179687 90.277865234375 300.31303784179687 Z M 90.277865234375 296.2190378417969 Q 93.819865234375 296.2190378417969 96.648865234375 294.60903784179686 Q 99.477865234375 292.99903784179685 101.110865234375 290.1700378417969 Q 102.743865234375 287.3410378417969 102.743865234375 283.84503784179685 Q 102.743865234375 280.34903784179687 101.110865234375 277.52003784179686 Q 99.477865234375 274.69103784179686 96.648865234375 273.0810378417969 Q 93.819865234375 271.4710378417969 90.277865234375 271.4710378417969 Q 86.735865234375 271.4710378417969 83.860865234375 273.0810378417969 Q 80.985865234375 274.69103784179686 79.352865234375 277.52003784179686 Q 77.71986523437499 280.34903784179687 77.71986523437499 283.84503784179685 Q 77.71986523437499 287.3410378417969 79.352865234375 290.1700378417969 Q 80.985865234375 292.99903784179685 83.860865234375 294.60903784179686 Q 86.735865234375 296.2190378417969 90.277865234375 296.2190378417969 Z M 180.23865698242187 299.9450378417969 L 180.19265698242188 276.4850378417969 L 168.55465698242188 296.03503784179685 L 166.4386569824219 296.03503784179685 L 154.80065698242188 276.6230378417969 L 154.80065698242188 299.9450378417969 L 150.3846569824219 299.9450378417969 L 150.3846569824219 267.7450378417969 L 154.15665698242188 267.7450378417969 L 167.58865698242187 290.3770378417969 L 180.83665698242186 267.7450378417969 L 184.60865698242188 267.7450378417969 L 184.65465698242187 299.9450378417969 Z M 242.86686657714844 267.7450378417969 Q 249.12286657714844 267.7450378417969 252.71086657714844 270.7350378417969 Q 256.29886657714843 273.72503784179685 256.29886657714843 278.9690378417969 Q 256.29886657714843 284.2130378417969 252.71086657714844 287.20303784179686 Q 249.12286657714844 290.19303784179687 242.86686657714844 290.19303784179687 L 234.90886657714844 290.19303784179687 L 234.90886657714844 299.9450378417969 L 230.30886657714845 299.9450378417969 L 230.30886657714845 267.7450378417969 L 242.86686657714844 267.7450378417969 Z M 242.72886657714844 286.19103784179686 Q 247.09886657714844 286.19103784179686 249.39886657714842 284.32803784179686 Q 251.69886657714844 282.46503784179686 251.69886657714844 278.9690378417969 Q 251.69886657714844 275.4730378417969 249.39886657714842 273.6100378417969 Q 247.09886657714844 271.7470378417969 242.72886657714844 271.7470378417969 L 234.90886657714844 271.7470378417969 L 234.90886657714844 286.19103784179686 L 242.72886657714844 286.19103784179686 Z M 317.9518349609375 291.89503784179686 L 300.8398349609375 291.89503784179686 L 297.2978349609375 299.9450378417969 L 292.5598349609375 299.9450378417969 L 307.1418349609375 267.7450378417969 L 311.6958349609375 267.7450378417969 L 326.3238349609375 299.9450378417969 L 321.4938349609375 299.9450378417969 Z M 316.3418349609375 288.21503784179686 L 309.3958349609375 272.4370378417969 L 302.4498349609375 288.21503784179686 Z M 394.80172412109374 267.7450378417969 L 394.80172412109374 299.9450378417969 L 391.02972412109375 299.9450378417969 L 371.70972412109376 275.9330378417969 L 371.70972412109376 299.9450378417969 L 367.10972412109373 299.9450378417969 L 367.10972412109373 267.7450378417969 L 370.8817241210937 267.7450378417969 L 390.2017241210938 291.7570378417969 L 390.2017241210938 267.7450378417969 Z M 440.4556103515625 267.7450378417969 L 445.0556103515625 267.7450378417969 L 445.0556103515625 299.9450378417969 L 440.4556103515625 299.9450378417969 Z M 505.2430751953125 300.31303784179687 Q 500.3670751953125 300.31303784179687 496.4570751953125 298.17403784179686 Q 492.5470751953125 296.03503784179685 490.3160751953125 292.26303784179686 Q 488.0850751953125 288.49103784179687 488.0850751953125 283.84503784179685 Q 488.0850751953125 279.1990378417969 490.3160751953125 275.42703784179685 Q 492.5470751953125 271.65503784179685 496.4570751953125 269.5160378417969 Q 500.3670751953125 267.3770378417969 505.2430751953125 267.3770378417969 Q 510.0730751953125 267.3770378417969 513.9830751953125 269.5160378417969 Q 517.8930751953125 271.65503784179685 520.1010751953125 275.4040378417969 Q 522.3090751953125 279.1530378417969 522.3090751953125 283.84503784179685 Q 522.3090751953125 288.53703784179686 520.1010751953125 292.2860378417969 Q 517.8930751953125 296.03503784179685 513.9830751953125 298.17403784179686 Q 510.0730751953125 300.31303784179687 505.2430751953125 300.31303784179687 Z M 505.2430751953125 296.2190378417969 Q 508.7850751953125 296.2190378417969 511.6140751953125 294.60903784179686 Q 514.4430751953125 292.99903784179685 516.0760751953125 290.1700378417969 Q 517.7090751953125 287.3410378417969 517.7090751953125 283.84503784179685 Q 517.7090751953125 280.34903784179687 516.0760751953125 277.52003784179686 Q 514.4430751953125 274.69103784179686 511.6140751953125 273.0810378417969 Q 508.7850751953125 271.4710378417969 505.2430751953125 271.4710378417969 Q 501.7010751953125 271.4710378417969 498.8260751953125 273.0810378417969 Q 495.9510751953125 274.69103784179686 494.3180751953125 277.52003784179686 Q 492.6850751953125 280.34903784179687 492.6850751953125 283.84503784179685 Q 492.6850751953125 287.3410378417969 494.3180751953125 290.1700378417969 Q 495.9510751953125 292.99903784179685 498.8260751953125 294.60903784179686 Q 501.7010751953125 296.2190378417969 505.2430751953125 296.2190378417969 Z M 593.0262114257813 267.7450378417969 L 593.0262114257813 299.9450378417969 L 589.2542114257812 299.9450378417969 L 569.9342114257812 275.9330378417969 L 569.9342114257812 299.9450378417969 L 565.3342114257813 299.9450378417969 L 565.3342114257813 267.7450378417969 L 569.1062114257812 267.7450378417969 L 588.4262114257813 291.7570378417969 L 588.4262114257813 267.7450378417969 Z" transform="matrix(1, 0, 0, 1, 0, 0)" style="fill: rgb(255, 255, 255); text-transform: uppercase; white-space: pre;"/>
  </g>
</svg>